<?xml version="1.0" standalone="no"?>
<!DOCTYPE svg PUBLIC "-//W3C//DTD SVG 20010904//EN"
 "http://www.w3.org/TR/2001/REC-SVG-20010904/DTD/svg10.dtd">
<svg version="1.0" xmlns="http://www.w3.org/2000/svg"
 width="512.000000pt" height="512.000000pt" viewBox="0 0 512.000000 512.000000"
 preserveAspectRatio="xMidYMid meet">
<metadata>
Created by potrace 1.14, written by Peter Selinger 2001-2017
</metadata>
<g transform="translate(0.000000,512.000000) scale(0.100000,-0.100000)"
fill="#000000" stroke="none">
<path d="M915 5038 c-84 -44 -119 -73 -153 -126 -55 -87 -76 -191 -62 -300 l6
-47 -141 0 c-136 -1 -142 -2 -208 -32 -37 -18 -95 -53 -130 -80 -34 -26 -63
-48 -65 -49 -2 -1 -4 -8 -6 -16 -2 -16 -66 -143 -90 -180 -10 -15 -15 -32 -11
-37 3 -6 -1 -34 -9 -63 -41 -145 -49 -265 -43 -688 4 -223 9 -434 12 -470 3
-36 7 -87 10 -115 5 -64 19 -384 19 -450 0 -27 -4 -104 -8 -170 -10 -153 -10
-140 -2 -210 7 -56 8 -283 2 -385 -11 -167 -19 -278 -23 -300 -9 -59 -12 -640
-2 -705 28 -198 90 -344 185 -439 60 -60 145 -113 164 -101 5 3 11 1 15 -4 3
-6 34 -7 74 -4 50 4 77 2 98 -9 21 -10 37 -12 54 -6 13 5 56 7 94 4 39 -2 77
-5 85 -5 271 -5 1822 -6 3070 -1 103 1 240 1 260 1 14 0 52 0 85 0 33 1 139 1
235 1 240 -1 268 2 349 36 188 79 278 210 318 467 4 28 7 156 6 285 -1 129 -4
937 -6 1795 l-3 1560 -22 56 c-81 204 -283 320 -557 317 -82 -1 -99 1 -96 13
14 56 12 180 -3 235 -40 139 -127 215 -276 238 -19 3 -47 8 -61 12 -19 4 -43
-3 -85 -27 -85 -47 -144 -88 -144 -100 0 -6 -9 -24 -21 -40 -37 -52 -60 -135
-60 -218 0 -42 3 -86 5 -98 3 -12 -1 -23 -7 -25 -10 -3 -2399 -2 -2418 1 -3 1
-2 25 2 54 14 108 1 204 -37 277 -57 110 -135 157 -289 174 -43 5 -59 1 -110
-26z m3221 -42 c23 -18 18 -24 -60 -67 l-59 -32 44 57 c24 31 46 56 49 56 4 0
15 -6 26 -14z m-3086 -3 c0 -5 -14 -16 -30 -25 -33 -19 -38 -14 -13 14 16 18
43 25 43 11z m128 -85 c2 -11 -22 -31 -75 -63 -43 -26 -76 -45 -73 -42 112
126 140 146 148 105z m3066 -17 c4 -5 -14 -21 -39 -34 -25 -14 -45 -24 -45
-22 0 7 65 65 72 65 4 0 9 -4 12 -9z m-3374 -126 c-24 -26 -40 -32 -40 -15 0
8 45 38 59 40 3 0 -6 -11 -19 -25z m340 10 c0 -2 -10 -10 -22 -16 -21 -11 -22
-11 -9 4 13 16 31 23 31 12z m2730 -30 c0 -2 -10 -9 -22 -15 -22 -11 -22 -10
-4 4 21 17 26 19 26 11z m357 -203 c1 -13 -16 -29 -55 -50 l-57 -32 54 50 c30
27 55 50 55 50 1 0 2 -8 3 -18z m293 -45 c0 -6 -133 -85 -150 -89 -9 -2 -16
10 -20 35 -6 33 -4 40 14 46 22 9 156 15 156 8z m-4115 -53 c-123 -70 -124
-70 -65 -10 50 52 58 56 99 56 l46 0 -80 -46z m926 20 c-33 -20 -45 -24 -51
-14 -16 26 1 40 49 40 l46 0 -44 -26z m554 18 c-6 -5 -107 -64 -225 -132 -118
-68 -279 -161 -358 -207 -79 -45 -140 -78 -137 -73 8 13 223 173 494 367 l73
53 81 0 c45 0 77 -4 72 -8z m225 4 c0 -2 -57 -36 -127 -77 -71 -40 -138 -79
-150 -87 -13 -8 -23 -12 -23 -9 0 2 37 29 83 58 45 30 84 57 85 62 2 4 9 7 15
7 7 1 26 12 42 25 25 21 75 35 75 21z m250 0 c0 -4 -99 -64 -182 -110 -26 -14
-98 -56 -160 -92 -62 -36 -108 -61 -102 -55 5 6 91 67 190 136 150 104 185
124 217 125 20 0 37 -2 37 -4z m229 0 c-12 -11 -283 -166 -285 -163 -9 8 244
167 265 167 13 0 22 -2 20 -4z m210 0 c-10 -10 -233 -137 -224 -128 27 28 192
132 209 132 11 0 17 -2 15 -4z m186 -9 c-33 -22 -141 -80 -132 -71 17 18 123
82 137 83 10 1 8 -3 -5 -12z m190 -5 c-73 -43 -129 -74 -120 -65 22 23 121 83
135 83 8 0 2 -8 -15 -18z m192 -17 c-32 -19 -60 -35 -62 -35 -3 0 -33 -17 -67
-38 -152 -93 -139 -75 22 32 67 44 125 76 140 76 20 0 14 -6 -33 -35z m343 28
c0 -17 -18 -32 -75 -66 -224 -131 -638 -367 -630 -359 6 6 141 105 300 221
l290 211 58 0 c31 0 57 -3 57 -7z m-3091 -44 c-91 -54 -102 -60 -84 -43 45 43
90 73 94 62 2 -6 -3 -14 -10 -19z m4135 -48 c16 -18 13 -21 -91 -82 -59 -35
-124 -72 -143 -82 -19 -11 -73 -42 -120 -69 -47 -28 -80 -45 -75 -40 14 15
399 291 406 291 3 1 14 -7 23 -18z m116 -211 c0 -21 -22 -38 -135 -102 -131
-75 -155 -88 -160 -88 -3 0 59 49 138 109 78 59 145 106 150 104 4 -2 7 -13 7
-23z m-4745 -136 c-31 -24 -55 -35 -55 -26 0 5 15 16 33 25 41 20 47 20 22 1z
m2674 -27 c-138 -105 -458 -333 -509 -364 -57 -33 -140 -52 -140 -31 0 4 5 8
10 8 6 0 15 11 19 23 7 17 95 73 318 201 169 98 312 182 318 187 5 5 13 9 18
9 6 0 -10 -15 -34 -33z m770 10 c-15 -12 -55 -43 -90 -68 -35 -25 -155 -112
-267 -193 -192 -140 -205 -148 -252 -150 -48 -2 -50 -1 -30 14 12 9 22 24 24
35 2 11 29 33 67 55 120 68 404 233 484 281 91 53 101 58 64 26z m-2679 -41
c0 -2 -24 -21 -52 -42 -29 -21 -120 -87 -202 -147 -140 -103 -149 -109 -173
-96 -20 11 -28 11 -46 -1 -77 -48 -170 -91 -178 -83 -6 6 5 17 28 29 31 17
224 127 558 321 37 21 65 29 65 19z m-510 -21 c0 -5 -286 -205 -294 -205 -3 0
-6 8 -6 18 0 12 45 44 148 104 163 96 152 90 152 83z m3530 -29 c0 -6 -369
-266 -379 -266 -12 0 -23 32 -14 41 7 7 384 227 391 229 1 0 2 -2 2 -4z m390
-40 c0 -7 -358 -276 -367 -276 -4 0 0 5 10 11 13 7 17 20 15 41 -3 27 2 32 57
63 33 18 110 62 170 98 121 72 115 69 115 63z m-3168 -96 c-72 -49 -133 -90
-136 -90 -3 0 -39 -20 -80 -44 -69 -41 -93 -50 -121 -47 -8 1 96 66 135 84 8
4 83 47 165 96 83 49 154 89 159 90 5 1 -50 -39 -122 -89z m218 -4 c0 -8 -142
-98 -147 -93 -2 3 15 18 39 32 23 15 57 36 73 46 32 20 35 21 35 15z m779 -36
c-14 -11 -67 -46 -118 -80 -75 -49 -88 -55 -71 -32 12 16 44 41 73 56 29 15
70 38 92 51 48 29 59 31 24 5z m-1299 6 c0 -7 -80 -56 -92 -56 -7 0 7 14 32
30 42 27 60 35 60 26z m670 -11 c0 -7 -74 -55 -85 -55 -5 0 10 14 35 30 50 32
50 32 50 25z m1170 1 c0 -2 -18 -15 -40 -30 -22 -14 -40 -23 -40 -19 0 5 17
18 38 30 40 24 42 25 42 19z m199 -10 c-18 -18 -197 -129 -212 -132 -31 -5
-13 7 103 75 95 55 121 69 109 57z m-1059 -50 c0 -6 -103 -72 -125 -80 -31
-11 -7 8 60 48 64 38 65 38 65 32z m2728 -51 c-15 -14 -35 -25 -45 -25 -12 1
-4 9 22 25 51 32 57 31 23 0z m-4126 -103 c13 -5 1 -16 -50 -45 l-67 -38 45
45 c24 25 47 46 50 45 3 0 13 -3 22 -7z m233 -33 c-126 -74 -131 -74 -37 0 32
24 64 41 80 41 22 0 14 -8 -43 -41z m894 -3 c-40 -23 -146 -85 -234 -136 -88
-51 -185 -106 -215 -123 -30 -16 -66 -38 -80 -47 -38 -25 -127 -73 -108 -58
23 18 89 65 348 247 l225 157 69 2 70 1 -75 -43z m155 -47 c-87 -50 -163 -93
-169 -96 -27 -12 41 35 135 95 58 36 107 69 110 73 8 10 33 17 59 18 15 1 -38
-35 -135 -90z m406 87 c0 -4 -156 -95 -278 -163 -26 -14 -76 -43 -111 -65 -34
-21 -65 -38 -67 -38 -2 0 -28 -16 -58 -35 -30 -19 -59 -35 -63 -35 -4 0 75 55
177 121 102 66 219 143 260 170 51 33 86 49 108 49 17 0 32 -2 32 -4z m450
-39 c-90 -52 -790 -456 -840 -485 -64 -36 -235 -134 -267 -154 -18 -11 -33
-18 -33 -15 0 3 71 50 158 106 263 170 877 572 884 579 4 4 44 8 90 10 l83 3
-75 -44z m335 35 c-6 -5 -122 -73 -260 -152 -137 -79 -302 -173 -365 -210 -63
-37 -133 -78 -155 -90 -22 -12 -56 -31 -75 -43 -19 -11 -30 -15 -25 -9 6 6
188 124 405 261 362 230 399 250 440 251 25 0 40 -4 35 -8z m304 4 c-15 -13
-625 -359 -639 -363 -63 -16 5 34 253 190 275 173 282 177 336 177 30 0 52 -2
50 -4z m171 -39 c-41 -24 -194 -112 -340 -196 -146 -84 -280 -162 -297 -173
-18 -11 -33 -17 -33 -15 0 3 17 16 38 28 67 41 326 201 362 224 161 104 288
175 315 175 26 0 21 -5 -45 -43z m245 30 c-40 -27 -100 -60 -92 -51 13 14 91
63 102 63 5 1 1 -5 -10 -12z m214 10 c-16 -12 -79 -45 -79 -42 0 7 63 45 74
45 5 0 7 -1 5 -3z m301 -10 c-8 -8 -154 -94 -325 -192 -170 -98 -449 -259
-619 -357 -195 -112 -313 -175 -319 -169 -6 6 0 15 14 24 13 9 273 171 578
361 l554 346 66 0 c55 0 63 -2 51 -13z m335 1 c-11 -6 -85 -50 -165 -96 -80
-47 -161 -93 -180 -104 -19 -11 -199 -115 -400 -231 -201 -116 -455 -262 -565
-325 -110 -63 -203 -116 -207 -119 -5 -2 -8 2 -8 9 0 7 12 20 28 29 32 19 271
167 899 557 248 154 460 282 470 285 10 3 47 5 83 6 54 0 62 -2 45 -11z m315
-1 c-8 -8 -276 -164 -595 -347 -319 -184 -670 -386 -780 -450 -196 -114 -294
-165 -301 -158 -2 2 76 53 174 113 97 60 215 132 262 161 47 29 319 197 605
373 l520 321 65 0 c54 0 62 -2 50 -13z m133 -69 c-2 -23 -7 -45 -11 -49 -4 -4
-153 -91 -332 -194 -179 -103 -442 -255 -585 -338 -411 -238 -528 -304 -552
-312 -52 -15 -15 15 115 94 75 46 153 94 172 107 42 27 1192 734 1195 734 1 0
0 -19 -2 -42z m-1408 2 c-3 -5 -12 -10 -18 -10 -7 0 -6 4 3 10 19 12 23 12 15
0z m-3350 -38 c-11 -9 -30 -28 -43 -41 -21 -24 -22 -24 -22 -4 0 13 13 29 33
41 40 25 59 27 32 4z m4748 -182 c-4 -5 -154 -92 -333 -195 -179 -103 -457
-264 -618 -357 -162 -94 -298 -166 -302 -162 -5 5 48 44 118 86 70 42 354 216
632 386 l505 309 3 -30 c2 -16 0 -33 -5 -37z m-4704 37 c-2 -1 -28 -22 -56
-45 -42 -35 -53 -40 -53 -25 0 18 98 88 109 78 2 -3 2 -6 0 -8z m4704 -177
c-7 -8 -74 -47 -298 -175 -73 -42 -382 -221 -510 -295 -16 -10 -64 -37 -105
-60 -41 -23 -97 -56 -123 -72 -26 -17 -49 -29 -52 -27 -2 3 616 383 774 475
20 12 99 60 176 107 103 63 141 81 143 70 2 -8 0 -19 -5 -23z m-4218 -19 c-26
-26 -588 -411 -593 -407 -12 13 -2 70 15 80 10 6 49 28 88 50 38 21 77 45 86
52 8 8 18 14 21 14 2 0 90 49 194 110 188 108 207 118 189 101z m1609 -54 c-3
-8 -51 -41 -107 -74 -192 -113 -199 -111 -16 7 68 43 125 79 126 79 1 1 0 -5
-3 -12z m-295 -10 c-2 -1 -13 -9 -24 -17 -19 -14 -19 -14 -6 3 7 9 18 17 24
17 6 0 8 -1 6 -3z m2904 -68 c-8 -8 -98 -60 -470 -275 -90 -52 -238 -137 -330
-191 -282 -162 -305 -175 -309 -170 -3 3 53 40 123 82 70 43 178 108 238 145
197 120 349 213 405 247 304 189 345 211 348 191 2 -11 0 -24 -5 -29z m-2883
-94 c-7 -8 -17 -15 -23 -15 -6 0 -2 7 9 15 25 19 30 19 14 0z m2889 -66 c-5
-9 -35 -32 -66 -49 -72 -41 -77 -44 -308 -177 -160 -93 -367 -212 -490 -283
-16 -10 -112 -65 -212 -123 -333 -192 -172 -76 274 198 241 148 519 319 618
380 164 102 181 110 186 91 3 -12 2 -28 -2 -37z m-3744 -8 c-6 -5 -210 -139
-455 -299 -245 -159 -483 -315 -530 -346 -51 -33 -87 -51 -91 -45 -8 13 -2 70
9 80 6 6 834 485 952 551 25 14 61 35 80 46 37 23 51 28 35 13z m-740 -40
c-27 -23 -328 -212 -336 -209 -18 6 11 28 141 103 74 43 149 86 165 96 32 20
45 24 30 10z m224 -5 c-7 -7 -534 -348 -551 -357 -14 -7 -15 -5 -9 18 6 21 53
52 266 175 143 82 264 153 270 159 5 5 13 9 19 9 5 0 7 -2 5 -4z m4261 -65 c0
-9 -164 -111 -177 -111 -3 0 -17 -8 -31 -18 -36 -25 -149 -87 -140 -78 6 7
337 212 346 215 1 1 2 -3 2 -8z m-10 -124 c-18 -17 -118 -74 -107 -61 8 9 108
72 117 73 2 1 -2 -5 -10 -12z m-1916 -52 c-10 -8 -23 -15 -28 -15 -6 0 -1 7
10 15 10 8 23 15 28 15 6 0 1 -7 -10 -15z m-1984 1 c0 -9 -899 -576 -913 -576
-2 0 -2 12 1 28 3 24 32 44 250 169 432 247 610 350 633 367 24 17 29 19 29
12z m2560 -26 c0 -5 -17 -19 -37 -30 -21 -11 -54 -30 -73 -41 -91 -53 -124
-70 -110 -56 13 13 209 137 217 137 2 0 3 -4 3 -10z m990 -15 c0 -2 -10 -9
-22 -15 -22 -11 -22 -10 -4 4 21 17 26 19 26 11z m-3390 -29 c-13 -11 -60 -42
-295 -191 -27 -18 -192 -121 -365 -230 -173 -109 -334 -211 -358 -227 -49 -32
-60 -31 -54 9 3 25 35 46 290 193 157 91 308 178 336 193 28 16 89 51 134 78
46 27 85 49 86 49 1 0 54 31 117 69 119 73 133 80 109 57z m3754 -27 c0 -32
-5 -44 -25 -55 -123 -73 -954 -552 -956 -551 0 1 -3 10 -5 19 -2 13 111 89
482 322 267 168 490 305 495 305 6 1 10 -17 9 -40z m-1 -167 c-2 -10 -32 -35
-66 -54 -34 -20 -161 -93 -282 -163 -121 -70 -240 -139 -265 -152 -42 -24
-122 -70 -197 -115 -18 -11 -33 -17 -33 -15 0 3 87 58 193 122 105 65 208 128
227 141 79 51 415 254 421 254 4 0 5 -8 2 -18z m-3029 -112 c-18 -18 -206
-130 -218 -130 -9 0 210 136 224 139 2 1 -1 -4 -6 -9z m3024 -56 c-7 -10 -183
-114 -348 -207 -25 -14 -107 -62 -184 -106 -76 -45 -142 -81 -147 -81 -5 0 -9
-4 -9 -10 0 -5 -4 -10 -9 -10 -4 0 -48 -23 -97 -51 -49 -29 -105 -61 -124 -71
-19 -11 -51 -29 -70 -41 -19 -11 -30 -15 -25 -10 6 6 87 58 180 116 94 57 318
197 500 311 276 172 331 203 336 188 4 -9 2 -22 -3 -28z m-4103 -14 c-3 -5
-34 -26 -68 -45 -34 -20 -192 -117 -351 -215 -160 -98 -293 -177 -297 -174 -5
3 -6 10 -3 17 3 9 700 420 722 426 2 1 0 -3 -3 -9z m565 -50 c0 -5 -7 -7 -15
-4 -8 4 -15 8 -15 10 0 2 7 4 15 4 8 0 15 -4 15 -10z m3540 -54 c0 -8 -69 -53
-152 -102 -84 -48 -182 -104 -217 -126 -35 -21 -65 -37 -67 -35 -2 2 40 30 93
63 53 32 151 93 217 135 67 43 122 77 124 78 1 1 2 -5 2 -13z m-3110 -71 c0
-2 -10 -9 -22 -15 -22 -11 -22 -10 -4 4 21 17 26 19 26 11z m-712 -40 c-8 -17
-158 -117 -500 -330 -268 -168 -491 -305 -494 -305 -3 0 -4 18 -2 41 l3 41
229 134 c126 74 230 134 231 134 2 0 123 70 271 155 147 85 269 155 271 155 1
0 -3 -11 -9 -25z m3821 -29 c-2 -1 -58 -33 -124 -71 -66 -37 -136 -77 -155
-88 -19 -11 -31 -16 -27 -11 20 22 302 191 306 182 1 -5 1 -10 0 -12z m-3349
-73 c-16 -25 -111 -76 -134 -72 -11 3 10 20 61 50 43 25 79 45 81 43 2 -1 -2
-11 -8 -21z m340 22 c0 -2 -10 -9 -22 -15 -22 -11 -22 -10 -4 4 21 17 26 19
26 11z m2135 -45 c-3 -5 -12 -10 -18 -10 -7 0 -6 4 3 10 19 12 23 12 15 0z
m-334 -41 c-12 -10 -27 -16 -33 -13 -5 4 3 14 19 24 35 22 46 15 14 -11z
m1213 22 c11 -17 -23 -42 -174 -129 -354 -203 -427 -245 -463 -269 -22 -13
-40 -23 -42 -21 -2 2 53 40 122 83 69 44 219 139 332 212 113 72 209 132 213
132 4 1 9 -3 12 -8z m-3809 -51 c-5 -8 -116 -78 -540 -340 -126 -78 -243 -151
-260 -161 -112 -72 -220 -137 -225 -134 -3 2 -4 22 -2 44 l4 40 346 200 c191
110 417 240 502 289 112 65 158 87 167 80 7 -6 11 -14 8 -18z m-785 -5 c0 -2
-10 -9 -22 -15 -22 -11 -22 -10 -4 4 21 17 26 19 26 11z m4270 -10 c0 -2 -10
-9 -22 -15 -22 -11 -22 -10 -4 4 21 17 26 19 26 11z m-4350 -39 c0 -6 -141
-88 -146 -84 -2 2 29 23 69 46 76 44 77 44 77 38z m3305 -15 c-17 -16 -357
-211 -345 -198 8 9 304 193 320 200 24 9 35 8 25 -2z m-2285 -21 c0 -4 -127
-87 -282 -183 -769 -475 -888 -548 -900 -552 -10 -4 -12 5 -10 37 l4 43 365
210 c201 116 464 267 586 337 202 117 237 133 237 108z m3652 -41 c-2 -19 -5
-34 -5 -35 -5 -4 -400 -231 -437 -252 -25 -14 -112 -64 -195 -112 -357 -208
-367 -206 -41 5 119 77 316 206 438 287 123 81 228 146 233 144 6 -1 8 -18 7
-37z m-4637 -19 c-3 -5 -12 -10 -18 -10 -7 0 -6 4 3 10 19 12 23 12 15 0z
m-115 -65 c0 -2 -13 -11 -30 -20 -38 -19 -40 -11 -2 9 31 17 32 18 32 11z
m1140 -32 c0 -13 -174 -125 -583 -376 -320 -196 -597 -367 -614 -378 l-33 -21
0 45 0 45 113 64 c118 68 737 426 967 559 74 43 138 79 143 79 4 0 7 -8 7 -17z
m3609 -147 c-9 -7 -255 -149 -264 -153 -14 -6 12 13 143 98 64 42 119 72 121
67 1 -5 1 -10 0 -12z m-3581 -18 c-3 -7 -121 -84 -264 -171 -142 -87 -412
-253 -600 -368 -187 -114 -348 -211 -356 -214 -11 -5 -17 2 -20 23 -5 33 -63
-4 587 370 176 102 392 227 480 278 88 51 164 93 168 93 5 1 7 -5 5 -11z
m3567 -104 c-26 -20 -55 -36 -55 -30 0 5 63 46 70 46 3 -1 -4 -8 -15 -16z
m-3605 -79 c-7 -8 -17 -15 -23 -15 -6 0 -2 7 9 15 25 19 30 19 14 0z m-40 -19
c0 -2 -57 -39 -127 -82 -145 -87 -274 -166 -691 -419 -229 -139 -296 -175
-303 -164 -10 16 -7 19 51 51 25 14 128 74 230 133 102 59 200 116 218 126 18
11 63 37 100 58 37 21 128 73 202 116 193 111 189 109 255 148 64 39 65 39 65
33z m3661 -52 c-4 -18 -49 -49 -180 -124 -95 -55 -175 -100 -176 -100 -2 0
-40 -23 -85 -51 -79 -49 -106 -53 -32 -4 21 13 134 91 252 173 124 87 218 146
221 140 4 -6 4 -21 0 -34z m-3541 -27 c-8 -8 -103 -67 -210 -132 -107 -65
-298 -181 -425 -258 -126 -77 -288 -176 -360 -219 -72 -44 -138 -85 -147 -91
-14 -9 -21 -8 -34 5 -15 15 -15 17 7 31 23 15 549 319 639 370 25 13 153 88
285 165 227 133 278 160 245 129z m930 -31 c0 -5 -158 -106 -166 -106 -3 0
-10 -5 -17 -11 -7 -5 -97 -63 -202 -128 -165 -104 -216 -128 -215 -102 1 3 75
49 167 101 91 52 187 107 212 122 25 15 55 32 66 37 11 5 49 28 85 50 69 43
70 43 70 37z m2613 -132 c-2 -5 -81 -55 -176 -109 -95 -54 -182 -105 -194
-113 -13 -8 -23 -12 -23 -9 0 3 37 32 83 65 45 33 132 97 192 141 103 75 110
79 116 58 3 -12 4 -27 2 -33z m-3505 24 c-6 -17 -1048 -658 -1068 -658 -8 1
-26 7 -39 14 -26 14 -30 11 99 84 19 10 123 70 230 132 107 62 269 156 360
208 91 53 217 126 280 163 115 67 145 80 138 57z m3506 -172 c-3 -8 -31 -28
-62 -45 -31 -17 -77 -42 -102 -56 -51 -28 -39 -19 75 65 76 56 100 66 89 36z
m-1676 -55 c-23 -30 -46 -43 -81 -46 -24 -2 -8 12 50 46 27 15 49 27 51 28 2
1 -7 -12 -20 -28z m-288 -12 c-25 -17 -76 -42 -68 -34 13 14 62 44 73 44 6 0
3 -4 -5 -10z m1105 -38 c-6 -5 -144 -101 -307 -215 l-297 -206 -62 0 c-39 0
-59 4 -53 9 9 9 614 361 620 361 2 0 25 14 51 30 46 30 66 38 48 21z m-2435
-40 c0 -4 -53 -40 -117 -80 -65 -40 -201 -124 -301 -187 l-184 -115 -76 3 -77
3 349 202 c323 187 350 201 377 191 16 -5 29 -13 29 -17z m470 -26 c-1 -6
-126 -88 -278 -182 -246 -154 -281 -173 -319 -173 -24 0 -43 2 -43 4 0 2 62
40 138 84 496 289 507 294 502 267z m2165 6 c-6 -5 -119 -88 -253 -185 l-243
-177 -65 3 -66 3 313 182 c173 100 316 182 319 182 2 1 0 -3 -5 -8z m-2445
-18 c0 -7 -168 -115 -210 -136 -8 -4 -87 -52 -175 -107 -121 -76 -168 -100
-194 -100 -19 0 -32 2 -30 4 5 5 346 203 424 247 28 15 77 43 109 63 60 36 76
42 76 29z m496 -2 c-3 -4 -45 -32 -93 -60 -49 -29 -153 -92 -233 -142 -220
-136 -228 -141 -247 -137 -11 2 18 24 77 58 548 320 504 294 496 281z m462 4
c-3 -3 -88 -58 -189 -122 -374 -235 -355 -225 -393 -221 -34 3 -28 8 117 92
321 188 442 256 456 256 8 0 12 -2 9 -5z m282 -11 c0 -1 -55 -39 -122 -83 -68
-44 -181 -119 -253 -165 l-130 -86 -75 0 -74 0 134 78 c360 210 426 247 444
252 21 6 76 9 76 4z m-2070 -39 c-7 -8 -17 -15 -23 -15 -6 0 -2 7 9 15 25 19
30 19 14 0z m1450 -10 c0 -2 -10 -9 -22 -15 -22 -11 -22 -10 -4 4 21 17 26 19
26 11z m-1495 -14 c-15 -15 -275 -171 -285 -171 -4 0 -10 -3 -12 -8 -8 -19
-168 -103 -168 -88 0 3 109 67 205 122 22 12 90 52 150 87 112 67 126 74 110
58z m1426 -29 c-13 -9 -43 -28 -67 -42 -24 -14 -107 -65 -184 -113 -77 -49
-148 -87 -158 -85 -10 2 57 46 163 107 99 57 198 115 220 127 46 28 61 31 26
6z m929 -16 c0 -3 -68 -48 -266 -174 -45 -29 -92 -52 -105 -52 -16 0 28 30
126 86 83 48 170 99 195 115 47 30 50 32 50 25z m990 -30 c0 -2 -59 -48 -131
-101 -121 -88 -134 -96 -171 -93 l-40 3 103 60 c57 33 110 63 119 68 8 4 38
21 65 37 54 31 55 32 55 26z m-3340 -41 c0 -2 -13 -11 -30 -20 -38 -19 -40
-11 -2 9 31 17 32 18 32 11z m-70 -39 c0 -6 -163 -104 -186 -112 -18 -6 -18
-5 1 8 11 8 47 30 80 48 33 18 69 39 80 46 21 15 25 16 25 10z m2445 -5 c-26
-23 -172 -111 -185 -111 -8 0 30 27 85 60 99 58 118 68 100 51z m1015 -35 c0
-10 -110 -78 -121 -74 -7 2 16 21 52 41 68 39 69 39 69 33z m285 -56 c-3 -5
-12 -10 -18 -10 -7 0 -6 4 3 10 19 12 23 12 15 0z"/>
</g>
</svg>
